# xmcd
#
# Track frame offsets:
#	150
#	33298
#	77561
#	126996
#	152053
#	197954
#	232316
#	257424
#	296023
#	323228
#	333622
#
# Disc length: 4739 seconds
#
# Revision: 0
# Processed by: cddbd v1.5.2PL0 Copyright (c) Steve Scherf et al.
# Submitted via: EZCDAudioConverter 1.3.4.1
#
DISCID=a012810b
DTITLE=Chemical Brothers - Don't Think
DYEAR=2012
DGENRE=
TTITLE0=Another World - Do It Again - Get Yourself High
TTITLE1=Horse Power - Chemical Beats
TTITLE2=Swoon - Star Guitar
TTITLE3=Three Little Birdies Down Beats - Hey Boy Hey Girl
TTITLE4=Don't Think - Out Of Control - Setting Sun
TTITLE5=Saturate
TTITLE6=Believe
TTITLE7=Escape Velocity - The Golden Path
TTITLE8=Superflash
TTITLE9=Leave Home - Galvanize
TTITLE10=Block Rockin' Beats
EXTD=
EXTT0=
EXTT1=
EXTT2=
EXTT3=
EXTT4=
EXTT5=
EXTT6=
EXTT7=
EXTT8=
EXTT9=
EXTT10=
PLAYORDER=
